<svg xmlns="http://www.w3.org/2000/svg" version="1.1" xmlns:xlink="http://www.w3.org/1999/xlink" xmlns:svgjs="http://svgjs.dev/svgjs" width="1440" height="560" preserveAspectRatio="none" viewBox="0 0 1440 560"><g mask="url(&quot;#SvgjsMask1092&quot;)" fill="none"><path d="M0 282.84L10 277.49L20 294.01L30 309.34L40 261.75L50 268.29L60 335.95L70 352.76L80 295.11L90 238.87L100 234.46L110 288.28L120 334.05L130 390.09L140 359.33L150 398.29L160 366.32L170 399.26L180 376.68L190 350.52L200 378.9L210 446.5L220 390.92L230 362.02L240 316.71L250 304.79L260 318.29L270 266.36L280 281.69L290 222.09L300 197.77L310 143.03L320 116.49L330 111.74L340 44.12L350 86.05L360 80.15L370 96.64L380 47.3L390 85.88L400 55.71L410 11.98L420 48.87L430 44.79L440 18.74L450 43.05L460 12.94L470 42.22L480 27.65L490 11.7L500 10.81L510 31.66L520 33.92L530 77.01L540 46.53L550 36.47L560 2.58L570 41.88L580 72.54L590 97.38L600 91.51L610 153.92L620 181.47L630 171.95L640 240.09L650 243.86L660 180.17L670 210.5L680 191.07L690 249.62L700 283.72L710 254.18L720 308.06L730 337.48L740 283.52L750 232.97L760 222.78L770 199.25L780 178.31L790 246.88L800 224.69L810 231.01L820 255.03L830 270.4L840 203.35L850 140.32L860 77.86L870 57.72L880 20.99L890 77.73L900 140.08L910 162.23L920 162.24L930 197.48L940 208.47L950 274.71L960 289.88L970 290.93L980 354.27L990 298.8L1000 232.04L1010 240.43L1020 289.43L1030 307.32L1040 254.37L1050 248.85L1060 318.47L1070 287.76L1080 278.24L1090 347.71L1100 391.46L1110 369.11L1120 432.79L1130 442.6L1140 453.91L1150 426.81L1160 377.92L1170 411.3L1180 465.37L1190 474.41L1200 474.78L1210 525.33L1220 556.89L1230 523.41L1240 505.96L1250 549.88L1260 499.84L1270 472.26L1280 480.06L1290 504.09L1300 524.1L1310 472.96L1320 494.05L1330 481.39L1340 546.61L1350 556.74L1360 549.11L1370 505.79L1380 462.13L1390 529.54L1400 513.76L1410 529.73L1420 482.13L1430 441.34L1440 432.37" stroke="rgba(121, 220, 254, 1)" stroke-width="2"></path><path d="M0 282.84L10 277.49L20 294.01L30 309.34L40 261.75L50 268.29L60 335.95L70 352.76L80 295.11L90 238.87L100 234.46L110 288.28L120 334.05L130 390.09L140 359.33L150 398.29L160 366.32L170 399.26L180 376.68L190 350.52L200 378.9L210 446.5L220 390.92L230 362.02L240 316.71L250 304.79L260 318.29L270 266.36L280 281.69L290 222.09L300 197.77L310 143.03L320 116.49L330 111.74L340 44.12L350 86.05L360 80.15L370 96.64L380 47.3L390 85.88L400 55.71L410 11.98L420 48.87L430 44.79L440 18.74L450 43.05L460 12.94L470 42.22L480 27.65L490 11.7L500 10.81L510 31.66L520 33.92L530 77.01L540 46.53L550 36.47L560 2.58L570 41.88L580 72.54L590 97.38L600 91.51L610 153.92L620 181.47L630 171.95L640 240.09L650 243.86L660 180.17L670 210.5L680 191.07L690 249.62L700 283.72L710 254.18L720 308.06L730 337.48L740 283.52L750 232.97L760 222.78L770 199.25L780 178.31L790 246.88L800 224.69L810 231.01L820 255.03L830 270.4L840 203.35L850 140.32L860 77.86L870 57.72L880 20.99L890 77.73L900 140.08L910 162.23L920 162.24L930 197.48L940 208.47L950 274.71L960 289.88L970 290.93L980 354.27L990 298.8L1000 232.04L1010 240.43L1020 289.43L1030 307.32L1040 254.37L1050 248.85L1060 318.47L1070 287.76L1080 278.24L1090 347.71L1100 391.46L1110 369.11L1120 432.79L1130 442.6L1140 453.91L1150 426.81L1160 377.92L1170 411.3L1180 465.37L1190 474.41L1200 474.78L1210 525.33L1220 556.89L1230 523.41L1240 505.96L1250 549.88L1260 499.84L1270 472.26L1280 480.06L1290 504.09L1300 524.1L1310 472.96L1320 494.05L1330 481.39L1340 546.61L1350 556.74L1360 549.11L1370 505.79L1380 462.13L1390 529.54L1400 513.76L1410 529.73L1420 482.13L1430 441.34L1440 432.37L1440 560L0 560z" fill="url(&quot;#SvgjsLinearGradient1093&quot;)"></path></g><defs><mask id="SvgjsMask1092"><rect width="1440" height="560" fill="#ffffff"></rect></mask><linearGradient x1="50%" y1="0%" x2="50%" y2="100%" id="SvgjsLinearGradient1093"><stop stop-opacity="0.65" stop-color="rgba(121, 220, 254, 1)" offset="0"></stop><stop stop-opacity="0" stop-color="#ffffff" offset="0.8"></stop></linearGradient></defs></svg>